<?xml version="1.0" encoding="iso-8859-1"?>
<!-- Generator: Adobe Illustrator 19.0.0, SVG Export Plug-In . SVG Version: 6.00 Build 0)  -->
<svg version="1.1" id="Capa_1" xmlns="http://www.w3.org/2000/svg" xmlns:xlink="http://www.w3.org/1999/xlink" x="0px" y="0px"
	 viewBox="0 0 368 368" style="enable-background:new 0 0 368 368;" xml:space="preserve">
<g>
	<g>
		<g>
			<path d="M219.16,258.376l55.048-97.072C283.232,144.952,288,126.384,288,107.6C288,48.272,241.344,0,184,0S80,48.272,80,107.6
				c0,19.008,4.816,37.6,13.92,53.784l54.912,96.992C98.32,265.272,64,286.536,64,312c0,31.928,51.592,56,120,56
				c68.416,0,120-24.072,120-56C304,286.536,269.68,265.264,219.16,258.376z M107.856,153.52C100.096,139.744,96,123.864,96,107.6
				C96,57.096,135.48,16,184,16s88,41.096,88,91.6c0,16.088-4.08,31.984-11.76,45.888L184,287.952l-15.28-26.928L107.856,153.52z
				 M184,352c-61.288,0-104-21.08-104-40c0-15.2,28.816-33.376,77.36-38.576l19.68,34.688c1.424,2.504,4.08,4.048,6.96,4.048
				s5.536-1.544,6.96-4.048l19.68-34.688C259.176,278.624,288,296.8,288,312C288,330.92,245.288,352,184,352z"/>
			<path d="M240,104c0-30.88-25.128-56-56-56c-30.88,0-56,25.12-56,56s25.12,56,56,56C214.872,160,240,134.88,240,104z M144,104
				c0-22.056,17.944-40,40-40c22.056,0,40,17.944,40,40c0,22.056-17.944,40-40,40C161.944,144,144,126.056,144,104z"/>
		</g>
	</g>
</g>
<g>
</g>
<g>
</g>
<g>
</g>
<g>
</g>
<g>
</g>
<g>
</g>
<g>
</g>
<g>
</g>
<g>
</g>
<g>
</g>
<g>
</g>
<g>
</g>
<g>
</g>
<g>
</g>
<g>
</g>
</svg>
